<mxfile host="app.diagrams.net" modified="2023-11-01T05:06:54.183Z" agent="Mozilla/5.0 (Windows NT 10.0; Win64; x64) AppleWebKit/537.36 (KHTML, like Gecko) Chrome/118.0.0.0 Safari/537.36 Edg/118.0.2088.76" etag="RhImE_6hwndtF2OUA70w" version="22.0.8" type="github">
  <diagram id="C5RBs43oDa-KdzZeNtuy" name="Page-1">
    <mxGraphModel dx="2831" dy="1138" grid="1" gridSize="10" guides="1" tooltips="1" connect="1" arrows="1" fold="1" page="1" pageScale="1" pageWidth="827" pageHeight="1169" math="0" shadow="0">
      <root>
        <mxCell id="WIyWlLk6GJQsqaUBKTNV-0" />
        <mxCell id="WIyWlLk6GJQsqaUBKTNV-1" parent="WIyWlLk6GJQsqaUBKTNV-0" />
        <mxCell id="zkfFHV4jXpPFQw0GAbJ--0" value="BaldosaModel" style="swimlane;fontStyle=2;align=center;verticalAlign=top;childLayout=stackLayout;horizontal=1;startSize=26;horizontalStack=0;resizeParent=1;resizeLast=0;collapsible=1;marginBottom=0;rounded=0;shadow=0;strokeWidth=1;" parent="WIyWlLk6GJQsqaUBKTNV-1" vertex="1">
          <mxGeometry x="-10" width="320" height="1080" as="geometry">
            <mxRectangle x="-10" width="160" height="26" as="alternateBounds" />
          </mxGeometry>
        </mxCell>
        <mxCell id="EaGZeDTLzt-fPzSk5z8u-3" value="baldosasAMostrar: ArrayList&amp;lt;Integer&amp;gt;" style="text;html=1;align=center;verticalAlign=middle;resizable=0;points=[];autosize=1;strokeColor=none;fillColor=none;" vertex="1" parent="zkfFHV4jXpPFQw0GAbJ--0">
          <mxGeometry y="26" width="320" height="30" as="geometry" />
        </mxCell>
        <mxCell id="EaGZeDTLzt-fPzSk5z8u-2" value="baldosasSinMostrar: ArrayList&amp;lt;Integer&amp;gt;" style="text;html=1;align=center;verticalAlign=middle;resizable=0;points=[];autosize=1;strokeColor=none;fillColor=none;" vertex="1" parent="zkfFHV4jXpPFQw0GAbJ--0">
          <mxGeometry y="56" width="320" height="30" as="geometry" />
        </mxCell>
        <mxCell id="EaGZeDTLzt-fPzSk5z8u-1" value="numeroDeBaldosasAMostrar: int" style="text;html=1;align=center;verticalAlign=middle;resizable=0;points=[];autosize=1;strokeColor=none;fillColor=none;" vertex="1" parent="zkfFHV4jXpPFQw0GAbJ--0">
          <mxGeometry y="86" width="320" height="30" as="geometry" />
        </mxCell>
        <mxCell id="EaGZeDTLzt-fPzSk5z8u-4" value="vidas: int" style="text;html=1;align=center;verticalAlign=middle;resizable=0;points=[];autosize=1;strokeColor=none;fillColor=none;" vertex="1" parent="zkfFHV4jXpPFQw0GAbJ--0">
          <mxGeometry y="116" width="320" height="30" as="geometry" />
        </mxCell>
        <mxCell id="EaGZeDTLzt-fPzSk5z8u-5" value="puntaje: int" style="text;html=1;align=center;verticalAlign=middle;resizable=0;points=[];autosize=1;strokeColor=none;fillColor=none;" vertex="1" parent="zkfFHV4jXpPFQw0GAbJ--0">
          <mxGeometry y="146" width="320" height="30" as="geometry" />
        </mxCell>
        <mxCell id="EaGZeDTLzt-fPzSk5z8u-6" value="puntajeASumar: int" style="text;html=1;align=center;verticalAlign=middle;resizable=0;points=[];autosize=1;strokeColor=none;fillColor=none;" vertex="1" parent="zkfFHV4jXpPFQw0GAbJ--0">
          <mxGeometry y="176" width="320" height="30" as="geometry" />
        </mxCell>
        <mxCell id="EaGZeDTLzt-fPzSk5z8u-7" value="tiempoDeCambio: double" style="text;html=1;align=center;verticalAlign=middle;resizable=0;points=[];autosize=1;strokeColor=none;fillColor=none;" vertex="1" parent="zkfFHV4jXpPFQw0GAbJ--0">
          <mxGeometry y="206" width="320" height="30" as="geometry" />
        </mxCell>
        <mxCell id="EaGZeDTLzt-fPzSk5z8u-8" value="aciertos: int" style="text;html=1;align=center;verticalAlign=middle;resizable=0;points=[];autosize=1;strokeColor=none;fillColor=none;" vertex="1" parent="zkfFHV4jXpPFQw0GAbJ--0">
          <mxGeometry y="236" width="320" height="30" as="geometry" />
        </mxCell>
        <mxCell id="EaGZeDTLzt-fPzSk5z8u-10" value="&amp;nbsp;errrores: int" style="text;html=1;align=center;verticalAlign=middle;resizable=0;points=[];autosize=1;strokeColor=none;fillColor=none;" vertex="1" parent="zkfFHV4jXpPFQw0GAbJ--0">
          <mxGeometry y="266" width="320" height="30" as="geometry" />
        </mxCell>
        <mxCell id="zkfFHV4jXpPFQw0GAbJ--4" value="" style="line;html=1;strokeWidth=1;align=left;verticalAlign=middle;spacingTop=-1;spacingLeft=3;spacingRight=3;rotatable=0;labelPosition=right;points=[];portConstraint=eastwest;" parent="zkfFHV4jXpPFQw0GAbJ--0" vertex="1">
          <mxGeometry y="296" width="320" height="34" as="geometry" />
        </mxCell>
        <mxCell id="EaGZeDTLzt-fPzSk5z8u-13" value="BaldosaModel()" style="text;html=1;align=center;verticalAlign=middle;resizable=0;points=[];autosize=1;strokeColor=none;fillColor=none;" vertex="1" parent="zkfFHV4jXpPFQw0GAbJ--0">
          <mxGeometry y="330" width="320" height="30" as="geometry" />
        </mxCell>
        <mxCell id="zkfFHV4jXpPFQw0GAbJ--17" value="BaldosaJuego" style="swimlane;fontStyle=0;align=center;verticalAlign=top;childLayout=stackLayout;horizontal=1;startSize=26;horizontalStack=0;resizeParent=1;resizeLast=0;collapsible=1;marginBottom=0;rounded=0;shadow=0;strokeWidth=1;" parent="WIyWlLk6GJQsqaUBKTNV-1" vertex="1">
          <mxGeometry x="-15" y="1290" width="330" height="784" as="geometry">
            <mxRectangle x="550" y="140" width="160" height="26" as="alternateBounds" />
          </mxGeometry>
        </mxCell>
        <mxCell id="EaGZeDTLzt-fPzSk5z8u-46" value="contador: int" style="text;html=1;align=center;verticalAlign=middle;resizable=0;points=[];autosize=1;strokeColor=none;fillColor=none;" vertex="1" parent="zkfFHV4jXpPFQw0GAbJ--17">
          <mxGeometry y="26" width="330" height="30" as="geometry" />
        </mxCell>
        <mxCell id="EaGZeDTLzt-fPzSk5z8u-47" value="puedeJugar: boolean" style="text;html=1;align=center;verticalAlign=middle;resizable=0;points=[];autosize=1;strokeColor=none;fillColor=none;" vertex="1" parent="zkfFHV4jXpPFQw0GAbJ--17">
          <mxGeometry y="56" width="330" height="30" as="geometry" />
        </mxCell>
        <mxCell id="EaGZeDTLzt-fPzSk5z8u-48" value="puedeTirar: boolean" style="text;html=1;align=center;verticalAlign=middle;resizable=0;points=[];autosize=1;strokeColor=none;fillColor=none;" vertex="1" parent="zkfFHV4jXpPFQw0GAbJ--17">
          <mxGeometry y="86" width="330" height="30" as="geometry" />
        </mxCell>
        <mxCell id="EaGZeDTLzt-fPzSk5z8u-49" value="inicioJuego: boolean" style="text;html=1;align=center;verticalAlign=middle;resizable=0;points=[];autosize=1;strokeColor=none;fillColor=none;" vertex="1" parent="zkfFHV4jXpPFQw0GAbJ--17">
          <mxGeometry y="116" width="330" height="30" as="geometry" />
        </mxCell>
        <mxCell id="EaGZeDTLzt-fPzSk5z8u-53" value="tAux: double" style="text;html=1;align=center;verticalAlign=middle;resizable=0;points=[];autosize=1;strokeColor=none;fillColor=none;" vertex="1" parent="zkfFHV4jXpPFQw0GAbJ--17">
          <mxGeometry y="146" width="330" height="30" as="geometry" />
        </mxCell>
        <mxCell id="EaGZeDTLzt-fPzSk5z8u-52" value="baldosaCambiada: int" style="text;html=1;align=center;verticalAlign=middle;resizable=0;points=[];autosize=1;strokeColor=none;fillColor=none;" vertex="1" parent="zkfFHV4jXpPFQw0GAbJ--17">
          <mxGeometry y="176" width="330" height="30" as="geometry" />
        </mxCell>
        <mxCell id="EaGZeDTLzt-fPzSk5z8u-55" value="logica: BaldosaModel" style="text;html=1;align=center;verticalAlign=middle;resizable=0;points=[];autosize=1;strokeColor=none;fillColor=none;" vertex="1" parent="zkfFHV4jXpPFQw0GAbJ--17">
          <mxGeometry y="206" width="330" height="30" as="geometry" />
        </mxCell>
        <mxCell id="EaGZeDTLzt-fPzSk5z8u-56" value="imgsBaldosas: Baldosas" style="text;html=1;align=center;verticalAlign=middle;resizable=0;points=[];autosize=1;strokeColor=none;fillColor=none;" vertex="1" parent="zkfFHV4jXpPFQw0GAbJ--17">
          <mxGeometry y="236" width="330" height="30" as="geometry" />
        </mxCell>
        <mxCell id="EaGZeDTLzt-fPzSk5z8u-54" value="tiempo: Timer" style="text;html=1;align=center;verticalAlign=middle;resizable=0;points=[];autosize=1;strokeColor=none;fillColor=none;" vertex="1" parent="zkfFHV4jXpPFQw0GAbJ--17">
          <mxGeometry y="266" width="330" height="30" as="geometry" />
        </mxCell>
        <mxCell id="EaGZeDTLzt-fPzSk5z8u-51" value="anchoV: int" style="text;html=1;align=center;verticalAlign=middle;resizable=0;points=[];autosize=1;strokeColor=none;fillColor=none;" vertex="1" parent="zkfFHV4jXpPFQw0GAbJ--17">
          <mxGeometry y="296" width="330" height="30" as="geometry" />
        </mxCell>
        <mxCell id="EaGZeDTLzt-fPzSk5z8u-50" value="largoV: int" style="text;html=1;align=center;verticalAlign=middle;resizable=0;points=[];autosize=1;strokeColor=none;fillColor=none;" vertex="1" parent="zkfFHV4jXpPFQw0GAbJ--17">
          <mxGeometry y="326" width="330" height="30" as="geometry" />
        </mxCell>
        <mxCell id="EaGZeDTLzt-fPzSk5z8u-57" value="rutaAbsoluta: String" style="text;html=1;align=center;verticalAlign=middle;resizable=0;points=[];autosize=1;strokeColor=none;fillColor=none;" vertex="1" parent="zkfFHV4jXpPFQw0GAbJ--17">
          <mxGeometry y="356" width="330" height="30" as="geometry" />
        </mxCell>
        <mxCell id="zkfFHV4jXpPFQw0GAbJ--23" value="" style="line;html=1;strokeWidth=1;align=left;verticalAlign=middle;spacingTop=-1;spacingLeft=3;spacingRight=3;rotatable=0;labelPosition=right;points=[];portConstraint=eastwest;" parent="zkfFHV4jXpPFQw0GAbJ--17" vertex="1">
          <mxGeometry y="386" width="330" height="8" as="geometry" />
        </mxCell>
        <mxCell id="EaGZeDTLzt-fPzSk5z8u-61" value="BaldosaJuego()" style="text;html=1;align=center;verticalAlign=middle;resizable=0;points=[];autosize=1;strokeColor=none;fillColor=none;" vertex="1" parent="zkfFHV4jXpPFQw0GAbJ--17">
          <mxGeometry y="394" width="330" height="30" as="geometry" />
        </mxCell>
        <mxCell id="EaGZeDTLzt-fPzSk5z8u-63" value="iniciarVentana(): void" style="text;html=1;align=center;verticalAlign=middle;resizable=0;points=[];autosize=1;strokeColor=none;fillColor=none;" vertex="1" parent="zkfFHV4jXpPFQw0GAbJ--17">
          <mxGeometry y="424" width="330" height="30" as="geometry" />
        </mxCell>
        <mxCell id="EaGZeDTLzt-fPzSk5z8u-66" value="iniciarComponentes(): void" style="text;html=1;align=center;verticalAlign=middle;resizable=0;points=[];autosize=1;strokeColor=none;fillColor=none;" vertex="1" parent="zkfFHV4jXpPFQw0GAbJ--17">
          <mxGeometry y="454" width="330" height="30" as="geometry" />
        </mxCell>
        <mxCell id="EaGZeDTLzt-fPzSk5z8u-67" value="inicializarVolumen(): void" style="text;html=1;align=center;verticalAlign=middle;resizable=0;points=[];autosize=1;strokeColor=none;fillColor=none;" vertex="1" parent="zkfFHV4jXpPFQw0GAbJ--17">
          <mxGeometry y="484" width="330" height="30" as="geometry" />
        </mxCell>
        <mxCell id="EaGZeDTLzt-fPzSk5z8u-65" value="reproducirSonido(cualSonido: String): void" style="text;html=1;align=center;verticalAlign=middle;resizable=0;points=[];autosize=1;strokeColor=none;fillColor=none;" vertex="1" parent="zkfFHV4jXpPFQw0GAbJ--17">
          <mxGeometry y="514" width="330" height="30" as="geometry" />
        </mxCell>
        <mxCell id="EaGZeDTLzt-fPzSk5z8u-62" value="play(filePath: String): void" style="text;html=1;align=center;verticalAlign=middle;resizable=0;points=[];autosize=1;strokeColor=none;fillColor=none;" vertex="1" parent="zkfFHV4jXpPFQw0GAbJ--17">
          <mxGeometry y="544" width="330" height="30" as="geometry" />
        </mxCell>
        <mxCell id="EaGZeDTLzt-fPzSk5z8u-71" value="inicializarBaldosas(): void" style="text;html=1;align=center;verticalAlign=middle;resizable=0;points=[];autosize=1;strokeColor=none;fillColor=none;" vertex="1" parent="zkfFHV4jXpPFQw0GAbJ--17">
          <mxGeometry y="574" width="330" height="30" as="geometry" />
        </mxCell>
        <mxCell id="EaGZeDTLzt-fPzSk5z8u-72" value="inicializarVidas(): void" style="text;html=1;align=center;verticalAlign=middle;resizable=0;points=[];autosize=1;strokeColor=none;fillColor=none;" vertex="1" parent="zkfFHV4jXpPFQw0GAbJ--17">
          <mxGeometry y="604" width="330" height="30" as="geometry" />
        </mxCell>
        <mxCell id="EaGZeDTLzt-fPzSk5z8u-69" value="baldosaslguales(baldosaCambiada: int):boolean" style="text;html=1;align=center;verticalAlign=middle;resizable=0;points=[];autosize=1;strokeColor=none;fillColor=none;" vertex="1" parent="zkfFHV4jXpPFQw0GAbJ--17">
          <mxGeometry y="634" width="330" height="30" as="geometry" />
        </mxCell>
        <mxCell id="EaGZeDTLzt-fPzSk5z8u-68" value="quitarUnaVida(): void" style="text;html=1;align=center;verticalAlign=middle;resizable=0;points=[];autosize=1;strokeColor=none;fillColor=none;" vertex="1" parent="zkfFHV4jXpPFQw0GAbJ--17">
          <mxGeometry y="664" width="330" height="30" as="geometry" />
        </mxCell>
        <mxCell id="EaGZeDTLzt-fPzSk5z8u-70" value="modificarBaldosas(): void" style="text;html=1;align=center;verticalAlign=middle;resizable=0;points=[];autosize=1;strokeColor=none;fillColor=none;" vertex="1" parent="zkfFHV4jXpPFQw0GAbJ--17">
          <mxGeometry y="694" width="330" height="30" as="geometry" />
        </mxCell>
        <mxCell id="EaGZeDTLzt-fPzSk5z8u-73" value="falloCometido(): void" style="text;html=1;align=center;verticalAlign=middle;resizable=0;points=[];autosize=1;strokeColor=none;fillColor=none;" vertex="1" parent="zkfFHV4jXpPFQw0GAbJ--17">
          <mxGeometry y="724" width="330" height="30" as="geometry" />
        </mxCell>
        <mxCell id="EaGZeDTLzt-fPzSk5z8u-74" value="acierto(): void" style="text;html=1;align=center;verticalAlign=middle;resizable=0;points=[];autosize=1;strokeColor=none;fillColor=none;" vertex="1" parent="zkfFHV4jXpPFQw0GAbJ--17">
          <mxGeometry y="754" width="330" height="30" as="geometry" />
        </mxCell>
        <mxCell id="EaGZeDTLzt-fPzSk5z8u-16" value="baldosaMostrandose(cualNumero: int): boolean" style="text;html=1;align=center;verticalAlign=middle;resizable=0;points=[];autosize=1;strokeColor=none;fillColor=none;" vertex="1" parent="WIyWlLk6GJQsqaUBKTNV-1">
          <mxGeometry x="10" y="368" width="280" height="30" as="geometry" />
        </mxCell>
        <mxCell id="EaGZeDTLzt-fPzSk5z8u-18" value="baldosaACambiar(): int" style="text;html=1;align=center;verticalAlign=middle;resizable=0;points=[];autosize=1;strokeColor=none;fillColor=none;" vertex="1" parent="WIyWlLk6GJQsqaUBKTNV-1">
          <mxGeometry x="75" y="408" width="150" height="30" as="geometry" />
        </mxCell>
        <mxCell id="EaGZeDTLzt-fPzSk5z8u-19" value="getBaldosasAMostrar(): ArrayList &amp;lt;integer&amp;gt;" style="text;html=1;align=center;verticalAlign=middle;resizable=0;points=[];autosize=1;strokeColor=none;fillColor=none;" vertex="1" parent="WIyWlLk6GJQsqaUBKTNV-1">
          <mxGeometry x="25" y="448" width="250" height="30" as="geometry" />
        </mxCell>
        <mxCell id="EaGZeDTLzt-fPzSk5z8u-22" value="errorCometido(): void" style="text;html=1;align=center;verticalAlign=middle;resizable=0;points=[];autosize=1;strokeColor=none;fillColor=none;" vertex="1" parent="WIyWlLk6GJQsqaUBKTNV-1">
          <mxGeometry x="90" y="488" width="140" height="30" as="geometry" />
        </mxCell>
        <mxCell id="EaGZeDTLzt-fPzSk5z8u-23" value="getVidas(): int" style="text;html=1;align=center;verticalAlign=middle;resizable=0;points=[];autosize=1;strokeColor=none;fillColor=none;" vertex="1" parent="WIyWlLk6GJQsqaUBKTNV-1">
          <mxGeometry x="100" y="528" width="100" height="30" as="geometry" />
        </mxCell>
        <mxCell id="EaGZeDTLzt-fPzSk5z8u-24" value="reiniciarBaldosasSinMostrar(): void" style="text;html=1;align=center;verticalAlign=middle;resizable=0;points=[];autosize=1;strokeColor=none;fillColor=none;" vertex="1" parent="WIyWlLk6GJQsqaUBKTNV-1">
          <mxGeometry x="35" y="568" width="210" height="30" as="geometry" />
        </mxCell>
        <mxCell id="EaGZeDTLzt-fPzSk5z8u-29" value="nuevasBaldosasAMostrar(): void" style="text;html=1;align=center;verticalAlign=middle;resizable=0;points=[];autosize=1;strokeColor=none;fillColor=none;" vertex="1" parent="WIyWlLk6GJQsqaUBKTNV-1">
          <mxGeometry x="50" y="608" width="200" height="30" as="geometry" />
        </mxCell>
        <mxCell id="EaGZeDTLzt-fPzSk5z8u-31" value="aumentarBaldosasAMostrar(): void" style="text;html=1;align=center;verticalAlign=middle;resizable=0;points=[];autosize=1;strokeColor=none;fillColor=none;" vertex="1" parent="WIyWlLk6GJQsqaUBKTNV-1">
          <mxGeometry x="55" y="648" width="210" height="30" as="geometry" />
        </mxCell>
        <mxCell id="EaGZeDTLzt-fPzSk5z8u-32" value="aumentarPuntaje(): void" style="text;html=1;align=center;verticalAlign=middle;resizable=0;points=[];autosize=1;strokeColor=none;fillColor=none;" vertex="1" parent="WIyWlLk6GJQsqaUBKTNV-1">
          <mxGeometry x="85" y="678" width="150" height="30" as="geometry" />
        </mxCell>
        <mxCell id="EaGZeDTLzt-fPzSk5z8u-33" value="aumentarPuntajeASumar(): void" style="text;html=1;align=center;verticalAlign=middle;resizable=0;points=[];autosize=1;strokeColor=none;fillColor=none;" vertex="1" parent="WIyWlLk6GJQsqaUBKTNV-1">
          <mxGeometry x="65" y="718" width="190" height="30" as="geometry" />
        </mxCell>
        <mxCell id="EaGZeDTLzt-fPzSk5z8u-34" value="getPuntaje(): int" style="text;html=1;align=center;verticalAlign=middle;resizable=0;points=[];autosize=1;strokeColor=none;fillColor=none;" vertex="1" parent="WIyWlLk6GJQsqaUBKTNV-1">
          <mxGeometry x="105" y="758" width="110" height="30" as="geometry" />
        </mxCell>
        <mxCell id="EaGZeDTLzt-fPzSk5z8u-35" value="disminuirTiempoDeCambio(): void" style="text;html=1;align=center;verticalAlign=middle;resizable=0;points=[];autosize=1;strokeColor=none;fillColor=none;" vertex="1" parent="WIyWlLk6GJQsqaUBKTNV-1">
          <mxGeometry x="60" y="798" width="200" height="30" as="geometry" />
        </mxCell>
        <mxCell id="EaGZeDTLzt-fPzSk5z8u-36" value="aumentarTiempoDeCambio(): void" style="text;html=1;align=center;verticalAlign=middle;resizable=0;points=[];autosize=1;strokeColor=none;fillColor=none;" vertex="1" parent="WIyWlLk6GJQsqaUBKTNV-1">
          <mxGeometry x="55" y="838" width="210" height="30" as="geometry" />
        </mxCell>
        <mxCell id="EaGZeDTLzt-fPzSk5z8u-37" value="getTiempoDeCambio(): double" style="text;html=1;align=center;verticalAlign=middle;resizable=0;points=[];autosize=1;strokeColor=none;fillColor=none;" vertex="1" parent="WIyWlLk6GJQsqaUBKTNV-1">
          <mxGeometry x="65" y="878" width="190" height="30" as="geometry" />
        </mxCell>
        <mxCell id="EaGZeDTLzt-fPzSk5z8u-39" value="getAciertos(): int" style="text;html=1;align=center;verticalAlign=middle;resizable=0;points=[];autosize=1;strokeColor=none;fillColor=none;" vertex="1" parent="WIyWlLk6GJQsqaUBKTNV-1">
          <mxGeometry x="105" y="918" width="110" height="30" as="geometry" />
        </mxCell>
        <mxCell id="EaGZeDTLzt-fPzSk5z8u-41" value="getErrores(): int" style="text;html=1;align=center;verticalAlign=middle;resizable=0;points=[];autosize=1;strokeColor=none;fillColor=none;" vertex="1" parent="WIyWlLk6GJQsqaUBKTNV-1">
          <mxGeometry x="105" y="958" width="110" height="30" as="geometry" />
        </mxCell>
        <mxCell id="EaGZeDTLzt-fPzSk5z8u-42" value="aumentarAciertos(): void" style="text;html=1;align=center;verticalAlign=middle;resizable=0;points=[];autosize=1;strokeColor=none;fillColor=none;" vertex="1" parent="WIyWlLk6GJQsqaUBKTNV-1">
          <mxGeometry x="75" y="998" width="150" height="30" as="geometry" />
        </mxCell>
        <mxCell id="EaGZeDTLzt-fPzSk5z8u-44" value="aumentarErrores(): void" style="text;html=1;align=center;verticalAlign=middle;resizable=0;points=[];autosize=1;strokeColor=none;fillColor=none;" vertex="1" parent="WIyWlLk6GJQsqaUBKTNV-1">
          <mxGeometry x="75" y="1048" width="150" height="30" as="geometry" />
        </mxCell>
        <mxCell id="EaGZeDTLzt-fPzSk5z8u-60" value="" style="endArrow=diamondThin;endFill=1;endSize=24;html=1;rounded=0;exitX=0.5;exitY=1;exitDx=0;exitDy=0;entryX=0.5;entryY=0;entryDx=0;entryDy=0;" edge="1" parent="WIyWlLk6GJQsqaUBKTNV-1" source="zkfFHV4jXpPFQw0GAbJ--0" target="zkfFHV4jXpPFQw0GAbJ--17">
          <mxGeometry width="160" relative="1" as="geometry">
            <mxPoint x="310" y="1290" as="sourcePoint" />
            <mxPoint x="470" y="1290" as="targetPoint" />
          </mxGeometry>
        </mxCell>
        <mxCell id="EaGZeDTLzt-fPzSk5z8u-80" value="BaldosaController" style="swimlane;fontStyle=0;align=center;verticalAlign=top;childLayout=stackLayout;horizontal=1;startSize=26;horizontalStack=0;resizeParent=1;resizeLast=0;collapsible=1;marginBottom=0;rounded=0;shadow=0;strokeWidth=1;" vertex="1" parent="WIyWlLk6GJQsqaUBKTNV-1">
          <mxGeometry x="560" y="1760" width="330" height="320" as="geometry">
            <mxRectangle x="550" y="140" width="160" height="26" as="alternateBounds" />
          </mxGeometry>
        </mxCell>
        <mxCell id="EaGZeDTLzt-fPzSk5z8u-81" value="listaDeBaldosas" style="text;html=1;align=center;verticalAlign=middle;resizable=0;points=[];autosize=1;strokeColor=none;fillColor=none;" vertex="1" parent="EaGZeDTLzt-fPzSk5z8u-80">
          <mxGeometry y="26" width="330" height="30" as="geometry" />
        </mxCell>
        <mxCell id="EaGZeDTLzt-fPzSk5z8u-82" value="ArrayList&amp;lt;ImageIcon&amp;gt;" style="text;html=1;align=center;verticalAlign=middle;resizable=0;points=[];autosize=1;strokeColor=none;fillColor=none;" vertex="1" parent="EaGZeDTLzt-fPzSk5z8u-80">
          <mxGeometry y="56" width="330" height="30" as="geometry" />
        </mxCell>
        <mxCell id="EaGZeDTLzt-fPzSk5z8u-83" value="altoBaldosa: int" style="text;html=1;align=center;verticalAlign=middle;resizable=0;points=[];autosize=1;strokeColor=none;fillColor=none;" vertex="1" parent="EaGZeDTLzt-fPzSk5z8u-80">
          <mxGeometry y="86" width="330" height="30" as="geometry" />
        </mxCell>
        <mxCell id="EaGZeDTLzt-fPzSk5z8u-84" value="anchoBaldosa: int" style="text;html=1;align=center;verticalAlign=middle;resizable=0;points=[];autosize=1;strokeColor=none;fillColor=none;" vertex="1" parent="EaGZeDTLzt-fPzSk5z8u-80">
          <mxGeometry y="116" width="330" height="30" as="geometry" />
        </mxCell>
        <mxCell id="EaGZeDTLzt-fPzSk5z8u-93" value="" style="line;html=1;strokeWidth=1;align=left;verticalAlign=middle;spacingTop=-1;spacingLeft=3;spacingRight=3;rotatable=0;labelPosition=right;points=[];portConstraint=eastwest;" vertex="1" parent="EaGZeDTLzt-fPzSk5z8u-80">
          <mxGeometry y="146" width="330" height="8" as="geometry" />
        </mxCell>
        <mxCell id="EaGZeDTLzt-fPzSk5z8u-94" value="Baldosas()" style="text;html=1;align=center;verticalAlign=middle;resizable=0;points=[];autosize=1;strokeColor=none;fillColor=none;" vertex="1" parent="EaGZeDTLzt-fPzSk5z8u-80">
          <mxGeometry y="154" width="330" height="30" as="geometry" />
        </mxCell>
        <mxCell id="EaGZeDTLzt-fPzSk5z8u-95" value="inicializarBaldosas(): void" style="text;html=1;align=center;verticalAlign=middle;resizable=0;points=[];autosize=1;strokeColor=none;fillColor=none;" vertex="1" parent="EaGZeDTLzt-fPzSk5z8u-80">
          <mxGeometry y="184" width="330" height="30" as="geometry" />
        </mxCell>
        <mxCell id="EaGZeDTLzt-fPzSk5z8u-96" value="operation2(params): void" style="text;html=1;align=center;verticalAlign=middle;resizable=0;points=[];autosize=1;strokeColor=none;fillColor=none;" vertex="1" parent="EaGZeDTLzt-fPzSk5z8u-80">
          <mxGeometry y="214" width="330" height="30" as="geometry" />
        </mxCell>
        <mxCell id="EaGZeDTLzt-fPzSk5z8u-97" value="&lt;div&gt;getimgBaldosa(cualBaldosa:&lt;span style=&quot;background-color: initial;&quot;&gt;int): Imagelcon&lt;/span&gt;&lt;/div&gt;" style="text;html=1;align=center;verticalAlign=middle;resizable=0;points=[];autosize=1;strokeColor=none;fillColor=none;" vertex="1" parent="EaGZeDTLzt-fPzSk5z8u-80">
          <mxGeometry y="244" width="330" height="30" as="geometry" />
        </mxCell>
        <mxCell id="EaGZeDTLzt-fPzSk5z8u-98" value="&lt;div&gt;getimgBaldosaAleatoria():&lt;span style=&quot;background-color: initial;&quot;&gt;Imagelcon&lt;/span&gt;&lt;/div&gt;" style="text;html=1;align=center;verticalAlign=middle;resizable=0;points=[];autosize=1;strokeColor=none;fillColor=none;" vertex="1" parent="EaGZeDTLzt-fPzSk5z8u-80">
          <mxGeometry y="274" width="330" height="30" as="geometry" />
        </mxCell>
        <mxCell id="EaGZeDTLzt-fPzSk5z8u-107" value="" style="endArrow=diamondThin;endFill=1;endSize=24;html=1;rounded=0;exitX=0.004;exitY=-0.123;exitDx=0;exitDy=0;exitPerimeter=0;" edge="1" parent="WIyWlLk6GJQsqaUBKTNV-1" source="EaGZeDTLzt-fPzSk5z8u-94">
          <mxGeometry width="160" relative="1" as="geometry">
            <mxPoint x="310" y="1470" as="sourcePoint" />
            <mxPoint x="310" y="1910" as="targetPoint" />
          </mxGeometry>
        </mxCell>
        <mxCell id="EaGZeDTLzt-fPzSk5z8u-108" value="VentanaInicial" style="swimlane;fontStyle=0;align=center;verticalAlign=top;childLayout=stackLayout;horizontal=1;startSize=26;horizontalStack=0;resizeParent=1;resizeLast=0;collapsible=1;marginBottom=0;rounded=0;shadow=0;strokeWidth=1;" vertex="1" parent="WIyWlLk6GJQsqaUBKTNV-1">
          <mxGeometry x="561" y="1290" width="330" height="454" as="geometry">
            <mxRectangle x="550" y="140" width="160" height="26" as="alternateBounds" />
          </mxGeometry>
        </mxCell>
        <mxCell id="EaGZeDTLzt-fPzSk5z8u-109" value="pasoVentana: boolean" style="text;html=1;align=center;verticalAlign=middle;resizable=0;points=[];autosize=1;strokeColor=none;fillColor=none;" vertex="1" parent="EaGZeDTLzt-fPzSk5z8u-108">
          <mxGeometry y="26" width="330" height="30" as="geometry" />
        </mxCell>
        <mxCell id="EaGZeDTLzt-fPzSk5z8u-110" value="opcion: int" style="text;html=1;align=center;verticalAlign=middle;resizable=0;points=[];autosize=1;strokeColor=none;fillColor=none;" vertex="1" parent="EaGZeDTLzt-fPzSk5z8u-108">
          <mxGeometry y="56" width="330" height="30" as="geometry" />
        </mxCell>
        <mxCell id="EaGZeDTLzt-fPzSk5z8u-119" value="tiempo: Timer" style="text;html=1;align=center;verticalAlign=middle;resizable=0;points=[];autosize=1;strokeColor=none;fillColor=none;" vertex="1" parent="EaGZeDTLzt-fPzSk5z8u-108">
          <mxGeometry y="86" width="330" height="30" as="geometry" />
        </mxCell>
        <mxCell id="EaGZeDTLzt-fPzSk5z8u-112" value="rutaAbsoluta: String" style="text;html=1;align=center;verticalAlign=middle;resizable=0;points=[];autosize=1;strokeColor=none;fillColor=none;" vertex="1" parent="EaGZeDTLzt-fPzSk5z8u-108">
          <mxGeometry y="116" width="330" height="30" as="geometry" />
        </mxCell>
        <mxCell id="EaGZeDTLzt-fPzSk5z8u-121" value="anchoV: int" style="text;html=1;align=center;verticalAlign=middle;resizable=0;points=[];autosize=1;strokeColor=none;fillColor=none;" vertex="1" parent="EaGZeDTLzt-fPzSk5z8u-108">
          <mxGeometry y="146" width="330" height="30" as="geometry" />
        </mxCell>
        <mxCell id="EaGZeDTLzt-fPzSk5z8u-120" value="&lt;div&gt;largoV: int&lt;/div&gt;&lt;div&gt;&lt;br&gt;&lt;/div&gt;" style="text;html=1;align=center;verticalAlign=middle;resizable=0;points=[];autosize=1;strokeColor=none;fillColor=none;" vertex="1" parent="EaGZeDTLzt-fPzSk5z8u-108">
          <mxGeometry y="176" width="330" height="40" as="geometry" />
        </mxCell>
        <mxCell id="EaGZeDTLzt-fPzSk5z8u-113" value="" style="line;html=1;strokeWidth=1;align=left;verticalAlign=middle;spacingTop=-1;spacingLeft=3;spacingRight=3;rotatable=0;labelPosition=right;points=[];portConstraint=eastwest;" vertex="1" parent="EaGZeDTLzt-fPzSk5z8u-108">
          <mxGeometry y="216" width="330" height="8" as="geometry" />
        </mxCell>
        <mxCell id="EaGZeDTLzt-fPzSk5z8u-114" value="VentanaInicial(opcion: int)" style="text;html=1;align=center;verticalAlign=middle;resizable=0;points=[];autosize=1;strokeColor=none;fillColor=none;" vertex="1" parent="EaGZeDTLzt-fPzSk5z8u-108">
          <mxGeometry y="224" width="330" height="30" as="geometry" />
        </mxCell>
        <mxCell id="EaGZeDTLzt-fPzSk5z8u-115" value="iniciarVentana(): void" style="text;html=1;align=center;verticalAlign=middle;resizable=0;points=[];autosize=1;strokeColor=none;fillColor=none;" vertex="1" parent="EaGZeDTLzt-fPzSk5z8u-108">
          <mxGeometry y="254" width="330" height="30" as="geometry" />
        </mxCell>
        <mxCell id="EaGZeDTLzt-fPzSk5z8u-116" value="iniciarComponentes(): void" style="text;html=1;align=center;verticalAlign=middle;resizable=0;points=[];autosize=1;strokeColor=none;fillColor=none;" vertex="1" parent="EaGZeDTLzt-fPzSk5z8u-108">
          <mxGeometry y="284" width="330" height="30" as="geometry" />
        </mxCell>
        <mxCell id="EaGZeDTLzt-fPzSk5z8u-117" value="reproducirSonido(cualSonido: String): void" style="text;html=1;align=center;verticalAlign=middle;resizable=0;points=[];autosize=1;strokeColor=none;fillColor=none;" vertex="1" parent="EaGZeDTLzt-fPzSk5z8u-108">
          <mxGeometry y="314" width="330" height="30" as="geometry" />
        </mxCell>
        <mxCell id="EaGZeDTLzt-fPzSk5z8u-118" value="play(filePath: String): void" style="text;html=1;align=center;verticalAlign=middle;resizable=0;points=[];autosize=1;strokeColor=none;fillColor=none;" vertex="1" parent="EaGZeDTLzt-fPzSk5z8u-108">
          <mxGeometry y="344" width="330" height="30" as="geometry" />
        </mxCell>
        <mxCell id="EaGZeDTLzt-fPzSk5z8u-123" value="ObtenerAnchoBoton(btn JButton): int" style="text;html=1;align=center;verticalAlign=middle;resizable=0;points=[];autosize=1;strokeColor=none;fillColor=none;" vertex="1" parent="EaGZeDTLzt-fPzSk5z8u-108">
          <mxGeometry y="374" width="330" height="30" as="geometry" />
        </mxCell>
        <mxCell id="EaGZeDTLzt-fPzSk5z8u-122" value="ObtenerAltoBoton(btn JButton): int" style="text;html=1;align=center;verticalAlign=middle;resizable=0;points=[];autosize=1;strokeColor=none;fillColor=none;" vertex="1" parent="EaGZeDTLzt-fPzSk5z8u-108">
          <mxGeometry y="404" width="330" height="30" as="geometry" />
        </mxCell>
        <mxCell id="EaGZeDTLzt-fPzSk5z8u-124" value="" style="line;strokeWidth=1;fillColor=none;align=left;verticalAlign=middle;spacingTop=-1;spacingLeft=3;spacingRight=3;rotatable=0;labelPosition=right;points=[];portConstraint=eastwest;strokeColor=inherit;" vertex="1" parent="WIyWlLk6GJQsqaUBKTNV-1">
          <mxGeometry x="315" y="1500" width="245" height="18" as="geometry" />
        </mxCell>
        <mxCell id="EaGZeDTLzt-fPzSk5z8u-125" value="VentanaIntrucciones" style="swimlane;fontStyle=0;align=center;verticalAlign=top;childLayout=stackLayout;horizontal=1;startSize=26;horizontalStack=0;resizeParent=1;resizeLast=0;collapsible=1;marginBottom=0;rounded=0;shadow=0;strokeWidth=1;" vertex="1" parent="WIyWlLk6GJQsqaUBKTNV-1">
          <mxGeometry x="560" width="330" height="524" as="geometry">
            <mxRectangle x="550" y="140" width="160" height="26" as="alternateBounds" />
          </mxGeometry>
        </mxCell>
        <mxCell id="EaGZeDTLzt-fPzSk5z8u-126" value="anchoV: int" style="text;html=1;align=center;verticalAlign=middle;resizable=0;points=[];autosize=1;strokeColor=none;fillColor=none;" vertex="1" parent="EaGZeDTLzt-fPzSk5z8u-125">
          <mxGeometry y="26" width="330" height="30" as="geometry" />
        </mxCell>
        <mxCell id="EaGZeDTLzt-fPzSk5z8u-127" value="largoV: int" style="text;html=1;align=center;verticalAlign=middle;resizable=0;points=[];autosize=1;strokeColor=none;fillColor=none;" vertex="1" parent="EaGZeDTLzt-fPzSk5z8u-125">
          <mxGeometry y="56" width="330" height="30" as="geometry" />
        </mxCell>
        <mxCell id="EaGZeDTLzt-fPzSk5z8u-128" value="rutaAbsoluta: String" style="text;html=1;align=center;verticalAlign=middle;resizable=0;points=[];autosize=1;strokeColor=none;fillColor=none;" vertex="1" parent="EaGZeDTLzt-fPzSk5z8u-125">
          <mxGeometry y="86" width="330" height="30" as="geometry" />
        </mxCell>
        <mxCell id="EaGZeDTLzt-fPzSk5z8u-129" value="tiempo: Timer" style="text;html=1;align=center;verticalAlign=middle;resizable=0;points=[];autosize=1;strokeColor=none;fillColor=none;" vertex="1" parent="EaGZeDTLzt-fPzSk5z8u-125">
          <mxGeometry y="116" width="330" height="30" as="geometry" />
        </mxCell>
        <mxCell id="EaGZeDTLzt-fPzSk5z8u-136" value="t: double" style="text;html=1;align=center;verticalAlign=middle;resizable=0;points=[];autosize=1;strokeColor=none;fillColor=none;" vertex="1" parent="EaGZeDTLzt-fPzSk5z8u-125">
          <mxGeometry y="146" width="330" height="30" as="geometry" />
        </mxCell>
        <mxCell id="EaGZeDTLzt-fPzSk5z8u-137" value="numVentana: int" style="text;html=1;align=center;verticalAlign=middle;resizable=0;points=[];autosize=1;strokeColor=none;fillColor=none;" vertex="1" parent="EaGZeDTLzt-fPzSk5z8u-125">
          <mxGeometry y="176" width="330" height="30" as="geometry" />
        </mxCell>
        <mxCell id="EaGZeDTLzt-fPzSk5z8u-130" value="" style="line;html=1;strokeWidth=1;align=left;verticalAlign=middle;spacingTop=-1;spacingLeft=3;spacingRight=3;rotatable=0;labelPosition=right;points=[];portConstraint=eastwest;" vertex="1" parent="EaGZeDTLzt-fPzSk5z8u-125">
          <mxGeometry y="206" width="330" height="8" as="geometry" />
        </mxCell>
        <mxCell id="EaGZeDTLzt-fPzSk5z8u-131" value="VentanaIntrucciones()" style="text;html=1;align=center;verticalAlign=middle;resizable=0;points=[];autosize=1;strokeColor=none;fillColor=none;" vertex="1" parent="EaGZeDTLzt-fPzSk5z8u-125">
          <mxGeometry y="214" width="330" height="30" as="geometry" />
        </mxCell>
        <mxCell id="EaGZeDTLzt-fPzSk5z8u-132" value="iniciarVentana(): void" style="text;html=1;align=center;verticalAlign=middle;resizable=0;points=[];autosize=1;strokeColor=none;fillColor=none;" vertex="1" parent="EaGZeDTLzt-fPzSk5z8u-125">
          <mxGeometry y="244" width="330" height="30" as="geometry" />
        </mxCell>
        <mxCell id="EaGZeDTLzt-fPzSk5z8u-133" value="iniciarComponentes(): void" style="text;html=1;align=center;verticalAlign=middle;resizable=0;points=[];autosize=1;strokeColor=none;fillColor=none;" vertex="1" parent="EaGZeDTLzt-fPzSk5z8u-125">
          <mxGeometry y="274" width="330" height="30" as="geometry" />
        </mxCell>
        <mxCell id="EaGZeDTLzt-fPzSk5z8u-134" value="iniciarVentana1(): void" style="text;html=1;align=center;verticalAlign=middle;resizable=0;points=[];autosize=1;strokeColor=none;fillColor=none;" vertex="1" parent="EaGZeDTLzt-fPzSk5z8u-125">
          <mxGeometry y="304" width="330" height="30" as="geometry" />
        </mxCell>
        <mxCell id="EaGZeDTLzt-fPzSk5z8u-135" value="iniciarVentana2(): void" style="text;html=1;align=center;verticalAlign=middle;resizable=0;points=[];autosize=1;strokeColor=none;fillColor=none;" vertex="1" parent="EaGZeDTLzt-fPzSk5z8u-125">
          <mxGeometry y="334" width="330" height="30" as="geometry" />
        </mxCell>
        <mxCell id="EaGZeDTLzt-fPzSk5z8u-139" value="iniciarVentana3(): void" style="text;html=1;align=center;verticalAlign=middle;resizable=0;points=[];autosize=1;strokeColor=none;fillColor=none;" vertex="1" parent="EaGZeDTLzt-fPzSk5z8u-125">
          <mxGeometry y="364" width="330" height="30" as="geometry" />
        </mxCell>
        <mxCell id="EaGZeDTLzt-fPzSk5z8u-138" value="iniciarVentana4(): void" style="text;html=1;align=center;verticalAlign=middle;resizable=0;points=[];autosize=1;strokeColor=none;fillColor=none;" vertex="1" parent="EaGZeDTLzt-fPzSk5z8u-125">
          <mxGeometry y="394" width="330" height="30" as="geometry" />
        </mxCell>
        <mxCell id="EaGZeDTLzt-fPzSk5z8u-168" value="&lt;div&gt;iniciarSonido(filePath: String):&lt;/div&gt;&lt;div&gt;void&lt;/div&gt;" style="text;html=1;align=center;verticalAlign=middle;resizable=0;points=[];autosize=1;strokeColor=none;fillColor=none;" vertex="1" parent="EaGZeDTLzt-fPzSk5z8u-125">
          <mxGeometry y="424" width="330" height="40" as="geometry" />
        </mxCell>
        <mxCell id="EaGZeDTLzt-fPzSk5z8u-169" value="&lt;div&gt;reproducirSonido(ventana: int):&lt;/div&gt;&lt;div&gt;void&lt;/div&gt;&lt;div&gt;&lt;br&gt;&lt;/div&gt;" style="text;html=1;align=center;verticalAlign=middle;resizable=0;points=[];autosize=1;strokeColor=none;fillColor=none;" vertex="1" parent="EaGZeDTLzt-fPzSk5z8u-125">
          <mxGeometry y="464" width="330" height="60" as="geometry" />
        </mxCell>
        <mxCell id="EaGZeDTLzt-fPzSk5z8u-142" value="" style="endArrow=none;html=1;rounded=0;exitX=0.5;exitY=0;exitDx=0;exitDy=0;entryX=0.506;entryY=0.993;entryDx=0;entryDy=0;entryPerimeter=0;" edge="1" parent="WIyWlLk6GJQsqaUBKTNV-1" source="EaGZeDTLzt-fPzSk5z8u-108" target="EaGZeDTLzt-fPzSk5z8u-169">
          <mxGeometry width="50" height="50" relative="1" as="geometry">
            <mxPoint x="460" y="640" as="sourcePoint" />
            <mxPoint x="733" y="528" as="targetPoint" />
          </mxGeometry>
        </mxCell>
        <mxCell id="EaGZeDTLzt-fPzSk5z8u-143" value="ventanaParaQueSirve" style="swimlane;fontStyle=0;align=center;verticalAlign=top;childLayout=stackLayout;horizontal=1;startSize=26;horizontalStack=0;resizeParent=1;resizeLast=0;collapsible=1;marginBottom=0;rounded=0;shadow=0;strokeWidth=1;" vertex="1" parent="WIyWlLk6GJQsqaUBKTNV-1">
          <mxGeometry x="561" y="2200" width="330" height="250" as="geometry">
            <mxRectangle x="550" y="140" width="160" height="26" as="alternateBounds" />
          </mxGeometry>
        </mxCell>
        <mxCell id="EaGZeDTLzt-fPzSk5z8u-144" value="rutaAbsoluta: String" style="text;html=1;align=center;verticalAlign=middle;resizable=0;points=[];autosize=1;strokeColor=none;fillColor=none;" vertex="1" parent="EaGZeDTLzt-fPzSk5z8u-143">
          <mxGeometry y="26" width="330" height="30" as="geometry" />
        </mxCell>
        <mxCell id="EaGZeDTLzt-fPzSk5z8u-145" value="anchoV: int" style="text;html=1;align=center;verticalAlign=middle;resizable=0;points=[];autosize=1;strokeColor=none;fillColor=none;" vertex="1" parent="EaGZeDTLzt-fPzSk5z8u-143">
          <mxGeometry y="56" width="330" height="30" as="geometry" />
        </mxCell>
        <mxCell id="EaGZeDTLzt-fPzSk5z8u-146" value="largoV: int" style="text;html=1;align=center;verticalAlign=middle;resizable=0;points=[];autosize=1;strokeColor=none;fillColor=none;" vertex="1" parent="EaGZeDTLzt-fPzSk5z8u-143">
          <mxGeometry y="86" width="330" height="30" as="geometry" />
        </mxCell>
        <mxCell id="EaGZeDTLzt-fPzSk5z8u-150" value="" style="line;html=1;strokeWidth=1;align=left;verticalAlign=middle;spacingTop=-1;spacingLeft=3;spacingRight=3;rotatable=0;labelPosition=right;points=[];portConstraint=eastwest;" vertex="1" parent="EaGZeDTLzt-fPzSk5z8u-143">
          <mxGeometry y="116" width="330" height="8" as="geometry" />
        </mxCell>
        <mxCell id="EaGZeDTLzt-fPzSk5z8u-151" value="&lt;div&gt;VentanaParaQueSirve()&lt;/div&gt;&lt;div&gt;&lt;br&gt;&lt;/div&gt;" style="text;html=1;align=center;verticalAlign=middle;resizable=0;points=[];autosize=1;strokeColor=none;fillColor=none;" vertex="1" parent="EaGZeDTLzt-fPzSk5z8u-143">
          <mxGeometry y="124" width="330" height="40" as="geometry" />
        </mxCell>
        <mxCell id="EaGZeDTLzt-fPzSk5z8u-152" value="iniciarVentana(): void" style="text;html=1;align=center;verticalAlign=middle;resizable=0;points=[];autosize=1;strokeColor=none;fillColor=none;" vertex="1" parent="EaGZeDTLzt-fPzSk5z8u-143">
          <mxGeometry y="164" width="330" height="30" as="geometry" />
        </mxCell>
        <mxCell id="EaGZeDTLzt-fPzSk5z8u-153" value="iniciarComponentes(): void" style="text;html=1;align=center;verticalAlign=middle;resizable=0;points=[];autosize=1;strokeColor=none;fillColor=none;" vertex="1" parent="EaGZeDTLzt-fPzSk5z8u-143">
          <mxGeometry y="194" width="330" height="30" as="geometry" />
        </mxCell>
        <mxCell id="EaGZeDTLzt-fPzSk5z8u-158" value="" style="endArrow=none;html=1;rounded=0;" edge="1" parent="WIyWlLk6GJQsqaUBKTNV-1">
          <mxGeometry width="50" height="50" relative="1" as="geometry">
            <mxPoint x="720" y="2200" as="sourcePoint" />
            <mxPoint x="720" y="2080" as="targetPoint" />
          </mxGeometry>
        </mxCell>
        <mxCell id="EaGZeDTLzt-fPzSk5z8u-163" value="PatronesVisuales" style="swimlane;fontStyle=1;align=center;verticalAlign=top;childLayout=stackLayout;horizontal=1;startSize=26;horizontalStack=0;resizeParent=1;resizeParentMax=0;resizeLast=0;collapsible=1;marginBottom=0;whiteSpace=wrap;html=1;" vertex="1" parent="WIyWlLk6GJQsqaUBKTNV-1">
          <mxGeometry x="1170" y="1380" width="160" height="60" as="geometry" />
        </mxCell>
        <mxCell id="EaGZeDTLzt-fPzSk5z8u-165" value="" style="line;strokeWidth=1;fillColor=none;align=left;verticalAlign=middle;spacingTop=-1;spacingLeft=3;spacingRight=3;rotatable=0;labelPosition=right;points=[];portConstraint=eastwest;strokeColor=inherit;" vertex="1" parent="EaGZeDTLzt-fPzSk5z8u-163">
          <mxGeometry y="26" width="160" height="8" as="geometry" />
        </mxCell>
        <mxCell id="EaGZeDTLzt-fPzSk5z8u-166" value="main()" style="text;strokeColor=none;fillColor=none;align=left;verticalAlign=top;spacingLeft=4;spacingRight=4;overflow=hidden;rotatable=0;points=[[0,0.5],[1,0.5]];portConstraint=eastwest;whiteSpace=wrap;html=1;" vertex="1" parent="EaGZeDTLzt-fPzSk5z8u-163">
          <mxGeometry y="34" width="160" height="26" as="geometry" />
        </mxCell>
        <mxCell id="EaGZeDTLzt-fPzSk5z8u-167" value="" style="endArrow=none;html=1;rounded=0;entryX=0.006;entryY=1.1;entryDx=0;entryDy=0;entryPerimeter=0;exitX=1.005;exitY=0.293;exitDx=0;exitDy=0;exitPerimeter=0;" edge="1" parent="WIyWlLk6GJQsqaUBKTNV-1" source="EaGZeDTLzt-fPzSk5z8u-112" target="EaGZeDTLzt-fPzSk5z8u-165">
          <mxGeometry width="50" height="50" relative="1" as="geometry">
            <mxPoint x="900" y="1410" as="sourcePoint" />
            <mxPoint x="1180" y="1491" as="targetPoint" />
          </mxGeometry>
        </mxCell>
        <mxCell id="EaGZeDTLzt-fPzSk5z8u-172" value="ventanaJuegoTerminado" style="swimlane;fontStyle=0;align=center;verticalAlign=top;childLayout=stackLayout;horizontal=1;startSize=26;horizontalStack=0;resizeParent=1;resizeLast=0;collapsible=1;marginBottom=0;rounded=0;shadow=0;strokeWidth=1;" vertex="1" parent="WIyWlLk6GJQsqaUBKTNV-1">
          <mxGeometry x="-740" y="1524" width="330" height="226" as="geometry">
            <mxRectangle x="550" y="140" width="160" height="26" as="alternateBounds" />
          </mxGeometry>
        </mxCell>
        <mxCell id="EaGZeDTLzt-fPzSk5z8u-173" value="&amp;nbsp;rutaAbsoluta: String" style="text;html=1;align=center;verticalAlign=middle;resizable=0;points=[];autosize=1;strokeColor=none;fillColor=none;" vertex="1" parent="EaGZeDTLzt-fPzSk5z8u-172">
          <mxGeometry y="26" width="330" height="30" as="geometry" />
        </mxCell>
        <mxCell id="EaGZeDTLzt-fPzSk5z8u-174" value="ancho: int" style="text;html=1;align=center;verticalAlign=middle;resizable=0;points=[];autosize=1;strokeColor=none;fillColor=none;" vertex="1" parent="EaGZeDTLzt-fPzSk5z8u-172">
          <mxGeometry y="56" width="330" height="30" as="geometry" />
        </mxCell>
        <mxCell id="EaGZeDTLzt-fPzSk5z8u-175" value="largo: int" style="text;html=1;align=center;verticalAlign=middle;resizable=0;points=[];autosize=1;strokeColor=none;fillColor=none;" vertex="1" parent="EaGZeDTLzt-fPzSk5z8u-172">
          <mxGeometry y="86" width="330" height="30" as="geometry" />
        </mxCell>
        <mxCell id="EaGZeDTLzt-fPzSk5z8u-180" value="logica: BaldosaModel" style="text;html=1;align=center;verticalAlign=middle;resizable=0;points=[];autosize=1;strokeColor=none;fillColor=none;" vertex="1" parent="EaGZeDTLzt-fPzSk5z8u-172">
          <mxGeometry y="116" width="330" height="30" as="geometry" />
        </mxCell>
        <mxCell id="EaGZeDTLzt-fPzSk5z8u-176" value="" style="line;html=1;strokeWidth=1;align=left;verticalAlign=middle;spacingTop=-1;spacingLeft=3;spacingRight=3;rotatable=0;labelPosition=right;points=[];portConstraint=eastwest;" vertex="1" parent="EaGZeDTLzt-fPzSk5z8u-172">
          <mxGeometry y="146" width="330" height="8" as="geometry" />
        </mxCell>
        <mxCell id="EaGZeDTLzt-fPzSk5z8u-177" value="&lt;div&gt;ventanaJuegoTerminado(logica:&amp;nbsp;&lt;/div&gt;ventanaJuegoTerminado&lt;span style=&quot;background-color: initial;&quot;&gt;)&lt;/span&gt;" style="text;html=1;align=center;verticalAlign=middle;resizable=0;points=[];autosize=1;strokeColor=none;fillColor=none;" vertex="1" parent="EaGZeDTLzt-fPzSk5z8u-172">
          <mxGeometry y="154" width="330" height="40" as="geometry" />
        </mxCell>
        <mxCell id="EaGZeDTLzt-fPzSk5z8u-179" value="iniciarComponentes(): void" style="text;html=1;align=center;verticalAlign=middle;resizable=0;points=[];autosize=1;strokeColor=none;fillColor=none;" vertex="1" parent="EaGZeDTLzt-fPzSk5z8u-172">
          <mxGeometry y="194" width="330" height="30" as="geometry" />
        </mxCell>
        <mxCell id="EaGZeDTLzt-fPzSk5z8u-182" value="" style="line;strokeWidth=1;fillColor=none;align=left;verticalAlign=middle;spacingTop=-1;spacingLeft=3;spacingRight=3;rotatable=0;labelPosition=right;points=[];portConstraint=eastwest;strokeColor=inherit;" vertex="1" parent="WIyWlLk6GJQsqaUBKTNV-1">
          <mxGeometry x="-410" y="1678" width="390" height="8" as="geometry" />
        </mxCell>
      </root>
    </mxGraphModel>
  </diagram>
</mxfile>
